<?xml version="1.0" encoding="UTF-8"?> <svg xmlns="http://www.w3.org/2000/svg" width="165" height="39" viewBox="0 0 165 39" fill="none"><path fill-rule="evenodd" clip-rule="evenodd" d="M44.9539 35.2015C46.1104 29.932 39.5647 21.5641 29.3166 15.6305C18.1381 9.15824 6.78755 8.03331 3.96446 13.1179C2.88981 15.0534 3.20574 17.6098 4.6259 20.3908C0.581925 15.5509 -1.07256 10.7897 0.717257 7.56611C3.87884 1.87187 16.5903 3.13168 29.1091 10.38C41.6279 17.6283 49.2134 28.1203 46.0518 33.8145C45.763 34.3346 45.3946 34.7967 44.9539 35.2015Z" fill="#1D66A7"></path><path fill-rule="evenodd" clip-rule="evenodd" d="M53.1848 4.79816C54.3414 10.0677 47.7956 18.4356 37.5475 24.3692C26.369 30.8415 15.0185 31.9664 12.1954 26.8818C11.1208 24.9463 11.4367 22.3899 12.8569 19.6089C8.81289 24.4487 7.15839 29.21 8.94821 32.4336C12.1098 38.1278 24.8213 36.868 37.34 29.6197C49.8588 22.3714 57.4444 11.8794 54.2828 6.18521C53.994 5.66508 53.6255 5.20298 53.1848 4.79816Z" fill="#4898DF"></path><path d="M76.6931 13.4669C76.6931 12.1709 76.5221 11.2529 76.1801 10.7129C75.8561 10.1729 75.2891 9.90285 74.4791 9.90285C74.2271 9.90285 73.9661 9.92085 73.6961 9.95685C73.4261 9.97485 73.1651 10.0019 72.9131 10.0379V20.9999H68.8901V7.28385C69.2321 7.19385 69.6281 7.10385 70.0781 7.01385C70.5461 6.90585 71.0321 6.81585 71.5361 6.74385C72.0581 6.65385 72.5891 6.59085 73.1291 6.55485C73.6691 6.50085 74.2001 6.47385 74.7221 6.47385C75.7481 6.47385 76.5761 6.60885 77.2061 6.87885C77.8541 7.13085 78.3851 7.43685 78.7991 7.79685C79.3751 7.38285 80.0321 7.05885 80.7701 6.82485C81.5261 6.59085 82.2191 6.47385 82.8491 6.47385C83.9831 6.47385 84.9101 6.63585 85.6301 6.95985C86.3681 7.26585 86.9531 7.70685 87.3851 8.28285C87.8171 8.85885 88.1141 9.54285 88.2761 10.3349C88.4381 11.1269 88.5191 12.0089 88.5191 12.9809V20.9999H84.4961V13.4669C84.4961 12.1709 84.3251 11.2529 83.9831 10.7129C83.6591 10.1729 83.0921 9.90285 82.2821 9.90285C82.0661 9.90285 81.7601 9.95685 81.3641 10.0649C80.9861 10.1729 80.6711 10.3079 80.4191 10.4699C80.5451 10.8839 80.6261 11.3249 80.6621 11.7929C80.6981 12.2429 80.7161 12.7289 80.7161 13.2509V20.9999H76.6931V13.4669Z" fill="#202D41"></path><path d="M96.1954 20.9999H92.1724V6.79785H96.1954V20.9999ZM96.5734 2.69385C96.5734 3.43185 96.3304 4.01685 95.8444 4.44885C95.3764 4.86285 94.8184 5.06985 94.1704 5.06985C93.5224 5.06985 92.9554 4.86285 92.4694 4.44885C92.0014 4.01685 91.7674 3.43185 91.7674 2.69385C91.7674 1.95585 92.0014 1.37985 92.4694 0.965851C92.9554 0.533851 93.5224 0.317851 94.1704 0.317851C94.8184 0.317851 95.3764 0.533851 95.8444 0.965851C96.3304 1.37985 96.5734 1.95585 96.5734 2.69385Z" fill="#202D41"></path><path d="M99.3021 13.8989C99.3021 12.8729 99.4641 11.9099 99.7881 11.0099C100.13 10.0919 100.616 9.29985 101.246 8.63385C101.876 7.94985 102.641 7.40985 103.541 7.01385C104.441 6.61785 105.467 6.41985 106.619 6.41985C107.375 6.41985 108.068 6.49185 108.698 6.63585C109.328 6.76185 109.94 6.95085 110.534 7.20285L109.697 10.4159C109.319 10.2719 108.905 10.1459 108.455 10.0379C108.005 9.92985 107.501 9.87585 106.943 9.87585C105.755 9.87585 104.864 10.2449 104.27 10.9829C103.694 11.7209 103.406 12.6929 103.406 13.8989C103.406 15.1769 103.676 16.1669 104.216 16.8689C104.774 17.5709 105.737 17.9219 107.105 17.9219C107.591 17.9219 108.113 17.8769 108.671 17.7869C109.229 17.6969 109.742 17.5529 110.21 17.3549L110.777 20.6489C110.309 20.8469 109.724 21.0179 109.022 21.1619C108.32 21.3059 107.546 21.3779 106.7 21.3779C105.404 21.3779 104.288 21.1889 103.352 20.8109C102.416 20.4149 101.642 19.8839 101.03 19.2179C100.436 18.5519 99.9951 17.7689 99.7071 16.8689C99.437 15.9509 99.3021 14.9609 99.3021 13.8989Z" fill="#202D41"></path><path d="M122.036 10.3619C121.676 10.2719 121.253 10.1819 120.767 10.0919C120.281 9.98385 119.759 9.92985 119.201 9.92985C118.949 9.92985 118.643 9.95685 118.283 10.0109C117.941 10.0469 117.68 10.0919 117.5 10.1459V20.9999H113.477V7.55385C114.197 7.30185 115.043 7.06785 116.015 6.85185C117.005 6.61785 118.103 6.50085 119.309 6.50085C119.525 6.50085 119.786 6.51885 120.092 6.55485C120.398 6.57285 120.704 6.60885 121.01 6.66285C121.316 6.69885 121.622 6.75285 121.928 6.82485C122.234 6.87885 122.495 6.95085 122.711 7.04085L122.036 10.3619Z" fill="#202D41"></path><path d="M137.888 13.8719C137.888 14.9879 137.726 16.0139 137.402 16.9499C137.078 17.8679 136.61 18.6599 135.998 19.3259C135.386 19.9739 134.648 20.4779 133.784 20.8379C132.938 21.1979 131.984 21.3779 130.922 21.3779C129.878 21.3779 128.924 21.1979 128.06 20.8379C127.214 20.4779 126.485 19.9739 125.873 19.3259C125.261 18.6599 124.784 17.8679 124.442 16.9499C124.1 16.0139 123.929 14.9879 123.929 13.8719C123.929 12.7559 124.1 11.7389 124.442 10.8209C124.802 9.90285 125.288 9.11985 125.9 8.47185C126.53 7.82385 127.268 7.31985 128.114 6.95985C128.978 6.59985 129.914 6.41985 130.922 6.41985C131.948 6.41985 132.884 6.59985 133.73 6.95985C134.594 7.31985 135.332 7.82385 135.944 8.47185C136.556 9.11985 137.033 9.90285 137.375 10.8209C137.717 11.7389 137.888 12.7559 137.888 13.8719ZM133.784 13.8719C133.784 12.6299 133.532 11.6579 133.028 10.9559C132.542 10.2359 131.84 9.87585 130.922 9.87585C130.004 9.87585 129.293 10.2359 128.789 10.9559C128.285 11.6579 128.033 12.6299 128.033 13.8719C128.033 15.1139 128.285 16.1039 128.789 16.8419C129.293 17.5619 130.004 17.9219 130.922 17.9219C131.84 17.9219 132.542 17.5619 133.028 16.8419C133.532 16.1039 133.784 15.1139 133.784 13.8719Z" fill="#202D41"></path><path d="M140.329 14.0069C140.329 12.7469 140.518 11.6489 140.896 10.7129C141.292 9.75885 141.805 8.96685 142.435 8.33685C143.065 7.70685 143.785 7.22985 144.595 6.90585C145.423 6.58185 146.269 6.41985 147.133 6.41985C149.149 6.41985 150.742 7.04085 151.912 8.28285C153.082 9.50685 153.667 11.3159 153.667 13.7099C153.667 13.9439 153.658 14.2049 153.64 14.4929C153.622 14.7629 153.604 15.0059 153.586 15.2219H144.46C144.55 16.0499 144.937 16.7069 145.621 17.1929C146.305 17.6789 147.223 17.9219 148.375 17.9219C149.113 17.9219 149.833 17.8589 150.535 17.7329C151.255 17.5889 151.84 17.4179 152.29 17.2199L152.83 20.4869C152.614 20.5949 152.326 20.7029 151.966 20.8109C151.606 20.9189 151.201 21.0089 150.751 21.0809C150.319 21.1709 149.851 21.2429 149.347 21.2969C148.843 21.3509 148.339 21.3779 147.835 21.3779C146.557 21.3779 145.441 21.1889 144.487 20.8109C143.551 20.4329 142.768 19.9199 142.138 19.2719C141.526 18.6059 141.067 17.8229 140.761 16.9229C140.473 16.0229 140.329 15.0509 140.329 14.0069ZM149.779 12.4679C149.761 12.1259 149.698 11.7929 149.59 11.4689C149.5 11.1449 149.347 10.8569 149.131 10.6049C148.933 10.3529 148.672 10.1459 148.348 9.98385C148.042 9.82185 147.655 9.74085 147.187 9.74085C146.737 9.74085 146.35 9.82185 146.026 9.98385C145.702 10.1279 145.432 10.3259 145.216 10.5779C145 10.8299 144.829 11.1269 144.703 11.4689C144.595 11.7929 144.514 12.1259 144.46 12.4679H149.779Z" fill="#202D41"></path><path d="M162.442 21.2699C161.272 21.2519 160.318 21.1259 159.58 20.8919C158.86 20.6579 158.284 20.3339 157.852 19.9199C157.438 19.4879 157.15 18.9749 156.988 18.3809C156.844 17.7689 156.772 17.0849 156.772 16.3289V0.695851L160.795 0.0478516V15.5189C160.795 15.8789 160.822 16.2029 160.876 16.4909C160.93 16.7789 161.029 17.0219 161.173 17.2199C161.335 17.4179 161.56 17.5799 161.848 17.7059C162.136 17.8319 162.523 17.9129 163.009 17.9489L162.442 21.2699Z" fill="#202D41"></path><path d="M72.17 31.7998V36.9998H71.27V33.0398C71.07 33.2932 70.85 33.5898 70.61 33.9298C70.37 34.2698 70.13 34.6232 69.89 34.9898C69.65 35.3498 69.42 35.7065 69.2 36.0598C68.98 36.4132 68.79 36.7265 68.63 36.9998H67.8V31.7998H68.7V35.5398C68.8734 35.2532 69.07 34.9398 69.29 34.5998C69.51 34.2532 69.7367 33.9132 69.97 33.5798C70.21 33.2398 70.4467 32.9165 70.68 32.6098C70.92 32.2965 71.1434 32.0265 71.35 31.7998H72.17Z" fill="#202D41"></path><path d="M78.0268 36.9998H77.0968V34.6998H74.6968V36.9998H73.7668V31.7998H74.6968V33.9198H77.0968V31.7998H78.0268V36.9998Z" fill="#202D41"></path><path d="M83.2962 31.7998V32.5798H81.6062V36.9998H80.6762V32.5798H78.9862V31.7998H83.2962Z" fill="#202D41"></path><path d="M83.9651 34.4098C83.9651 33.9498 84.0318 33.5498 84.1651 33.2098C84.2985 32.8632 84.4751 32.5765 84.6951 32.3498C84.9151 32.1232 85.1685 31.9532 85.4551 31.8398C85.7418 31.7265 86.0351 31.6698 86.3351 31.6698C87.0351 31.6698 87.5718 31.8898 87.9451 32.3298C88.3185 32.7632 88.5051 33.4265 88.5051 34.3198C88.5051 34.3598 88.5051 34.4132 88.5051 34.4798C88.5051 34.5398 88.5018 34.5965 88.4951 34.6498H84.9351C84.9751 35.1898 85.1318 35.5998 85.4051 35.8798C85.6785 36.1598 86.1051 36.2998 86.6851 36.2998C87.0118 36.2998 87.2851 36.2732 87.5051 36.2198C87.7318 36.1598 87.9018 36.1032 88.0151 36.0498L88.1451 36.8298C88.0318 36.8898 87.8318 36.9532 87.5451 37.0198C87.2651 37.0865 86.9451 37.1198 86.5851 37.1198C86.1318 37.1198 85.7385 37.0532 85.4051 36.9198C85.0785 36.7798 84.8085 36.5898 84.5951 36.3498C84.3818 36.1098 84.2218 35.8265 84.1151 35.4998C84.0151 35.1665 83.9651 34.8032 83.9651 34.4098ZM87.5351 33.8998C87.5418 33.4798 87.4351 33.1365 87.2151 32.8698C87.0018 32.5965 86.7051 32.4598 86.3251 32.4598C86.1118 32.4598 85.9218 32.5032 85.7551 32.5898C85.5951 32.6698 85.4585 32.7765 85.3451 32.9098C85.2318 33.0432 85.1418 33.1965 85.0751 33.3698C85.0151 33.5432 84.9751 33.7198 84.9551 33.8998H87.5351Z" fill="#202D41"></path><path d="M93.4511 34.4098C93.4511 33.8032 93.3011 33.3365 93.0011 33.0098C92.7011 32.6832 92.3011 32.5198 91.8011 32.5198C91.5211 32.5198 91.3011 32.5298 91.1411 32.5498C90.9877 32.5698 90.8644 32.5932 90.7711 32.6198V35.8998C90.8844 35.9932 91.0477 36.0832 91.2611 36.1698C91.4744 36.2565 91.7077 36.2998 91.9611 36.2998C92.2277 36.2998 92.4544 36.2532 92.6411 36.1598C92.8344 36.0598 92.9911 35.9265 93.1111 35.7598C93.2311 35.5865 93.3177 35.3865 93.3711 35.1598C93.4244 34.9265 93.4511 34.6765 93.4511 34.4098ZM94.4211 34.4098C94.4211 34.8032 94.3677 35.1665 94.2611 35.4998C94.1611 35.8332 94.0111 36.1198 93.8111 36.3598C93.6111 36.5998 93.3644 36.7865 93.0711 36.9198C92.7844 37.0532 92.4544 37.1198 92.0811 37.1198C91.7811 37.1198 91.5144 37.0798 91.2811 36.9998C91.0544 36.9198 90.8844 36.8432 90.7711 36.7698V38.8498H89.8411V31.9598C90.0611 31.9065 90.3344 31.8498 90.6611 31.7898C90.9944 31.7232 91.3777 31.6898 91.8111 31.6898C92.2111 31.6898 92.5711 31.7532 92.8911 31.8798C93.2111 32.0065 93.4844 32.1865 93.7111 32.4198C93.9377 32.6532 94.1111 32.9398 94.2311 33.2798C94.3577 33.6132 94.4211 33.9898 94.4211 34.4098Z" fill="#202D41"></path><path d="M99.9897 36.9998H99.0597V34.6998H96.6597V36.9998H95.7297V31.7998H96.6597V33.9198H99.0597V31.7998H99.9897V36.9998Z" fill="#202D41"></path><path d="M101.299 34.4098C101.299 33.9498 101.366 33.5498 101.499 33.2098C101.632 32.8632 101.809 32.5765 102.029 32.3498C102.249 32.1232 102.502 31.9532 102.789 31.8398C103.076 31.7265 103.369 31.6698 103.669 31.6698C104.369 31.6698 104.906 31.8898 105.279 32.3298C105.652 32.7632 105.839 33.4265 105.839 34.3198C105.839 34.3598 105.839 34.4132 105.839 34.4798C105.839 34.5398 105.836 34.5965 105.829 34.6498H102.269C102.309 35.1898 102.466 35.5998 102.739 35.8798C103.012 36.1598 103.439 36.2998 104.019 36.2998C104.346 36.2998 104.619 36.2732 104.839 36.2198C105.066 36.1598 105.236 36.1032 105.349 36.0498L105.479 36.8298C105.366 36.8898 105.166 36.9532 104.879 37.0198C104.599 37.0865 104.279 37.1198 103.919 37.1198C103.466 37.1198 103.072 37.0532 102.739 36.9198C102.412 36.7798 102.142 36.5898 101.929 36.3498C101.716 36.1098 101.556 35.8265 101.449 35.4998C101.349 35.1665 101.299 34.8032 101.299 34.4098ZM104.869 33.8998C104.876 33.4798 104.769 33.1365 104.549 32.8698C104.336 32.5965 104.039 32.4598 103.659 32.4598C103.446 32.4598 103.256 32.5032 103.089 32.5898C102.929 32.6698 102.792 32.7765 102.679 32.9098C102.566 33.0432 102.476 33.1965 102.409 33.3698C102.349 33.5432 102.309 33.7198 102.289 33.8998H104.869Z" fill="#202D41"></path><path d="M110.845 31.7998V32.5798H109.155V36.9998H108.225V32.5798H106.535V31.7998H110.845Z" fill="#202D41"></path><path d="M110.961 33.5698H113.431V34.4398H110.961V33.5698Z" fill="#202D41"></path><path d="M118.67 36.9998H117.74V32.5798H115.42V36.9998H114.49V31.7998H118.67V36.9998Z" fill="#202D41"></path><path d="M123.881 34.4098C123.881 33.8032 123.731 33.3365 123.431 33.0098C123.131 32.6832 122.731 32.5198 122.231 32.5198C121.951 32.5198 121.731 32.5298 121.571 32.5498C121.417 32.5698 121.294 32.5932 121.201 32.6198V35.8998C121.314 35.9932 121.477 36.0832 121.691 36.1698C121.904 36.2565 122.137 36.2998 122.391 36.2998C122.657 36.2998 122.884 36.2532 123.071 36.1598C123.264 36.0598 123.421 35.9265 123.541 35.7598C123.661 35.5865 123.747 35.3865 123.801 35.1598C123.854 34.9265 123.881 34.6765 123.881 34.4098ZM124.851 34.4098C124.851 34.8032 124.797 35.1665 124.691 35.4998C124.591 35.8332 124.441 36.1198 124.241 36.3598C124.041 36.5998 123.794 36.7865 123.501 36.9198C123.214 37.0532 122.884 37.1198 122.511 37.1198C122.211 37.1198 121.944 37.0798 121.711 36.9998C121.484 36.9198 121.314 36.8432 121.201 36.7698V38.8498H120.271V31.9598C120.491 31.9065 120.764 31.8498 121.091 31.7898C121.424 31.7232 121.807 31.6898 122.241 31.6898C122.641 31.6898 123.001 31.7532 123.321 31.8798C123.641 32.0065 123.914 32.1865 124.141 32.4198C124.367 32.6532 124.541 32.9398 124.661 33.2798C124.787 33.6132 124.851 33.9898 124.851 34.4098Z" fill="#202D41"></path><path d="M130.749 34.3998C130.749 34.8132 130.689 35.1865 130.569 35.5198C130.449 35.8532 130.279 36.1398 130.059 36.3798C129.846 36.6198 129.589 36.8065 129.289 36.9398C128.989 37.0665 128.663 37.1298 128.309 37.1298C127.956 37.1298 127.629 37.0665 127.329 36.9398C127.029 36.8065 126.769 36.6198 126.549 36.3798C126.336 36.1398 126.169 35.8532 126.049 35.5198C125.929 35.1865 125.869 34.8132 125.869 34.3998C125.869 33.9932 125.929 33.6232 126.049 33.2898C126.169 32.9498 126.336 32.6598 126.549 32.4198C126.769 32.1798 127.029 31.9965 127.329 31.8698C127.629 31.7365 127.956 31.6698 128.309 31.6698C128.663 31.6698 128.989 31.7365 129.289 31.8698C129.589 31.9965 129.846 32.1798 130.059 32.4198C130.279 32.6598 130.449 32.9498 130.569 33.2898C130.689 33.6232 130.749 33.9932 130.749 34.3998ZM129.779 34.3998C129.779 33.8132 129.646 33.3498 129.379 33.0098C129.119 32.6632 128.763 32.4898 128.309 32.4898C127.856 32.4898 127.496 32.6632 127.229 33.0098C126.969 33.3498 126.839 33.8132 126.839 34.3998C126.839 34.9865 126.969 35.4532 127.229 35.7998C127.496 36.1398 127.856 36.3098 128.309 36.3098C128.763 36.3098 129.119 36.1398 129.379 35.7998C129.646 35.4532 129.779 34.9865 129.779 34.3998Z" fill="#202D41"></path><path d="M132.968 36.2998C133.008 36.3065 133.065 36.3132 133.138 36.3198C133.211 36.3265 133.295 36.3332 133.388 36.3398C133.481 36.3398 133.578 36.3432 133.678 36.3498C133.785 36.3498 133.885 36.3498 133.978 36.3498C134.171 36.3498 134.355 36.3365 134.528 36.3098C134.708 36.2832 134.861 36.2365 134.988 36.1698C135.121 36.1032 135.225 36.0165 135.298 35.9098C135.378 35.7965 135.418 35.6532 135.418 35.4798C135.418 35.3132 135.381 35.1765 135.308 35.0698C135.241 34.9565 135.148 34.8665 135.028 34.7998C134.908 34.7332 134.765 34.6865 134.598 34.6598C134.438 34.6332 134.265 34.6198 134.078 34.6198H132.968V36.2998ZM133.958 33.9298C134.138 33.9298 134.301 33.9198 134.448 33.8998C134.601 33.8732 134.731 33.8298 134.838 33.7698C134.951 33.7098 135.038 33.6298 135.098 33.5298C135.165 33.4298 135.198 33.3032 135.198 33.1498C135.198 32.9898 135.158 32.8632 135.078 32.7698C134.998 32.6765 134.891 32.6065 134.758 32.5598C134.631 32.5065 134.485 32.4732 134.318 32.4598C134.158 32.4398 133.995 32.4298 133.828 32.4298C133.675 32.4298 133.518 32.4332 133.358 32.4398C133.205 32.4465 133.075 32.4532 132.968 32.4598V33.9298H133.958ZM133.938 37.0898C133.545 37.0898 133.181 37.0698 132.848 37.0298C132.515 36.9965 132.251 36.9565 132.058 36.9098V31.8498C132.251 31.8032 132.515 31.7632 132.848 31.7298C133.181 31.6898 133.545 31.6698 133.938 31.6698C134.211 31.6698 134.478 31.6932 134.738 31.7398C134.998 31.7865 135.228 31.8665 135.428 31.9798C135.628 32.0865 135.788 32.2365 135.908 32.4298C136.035 32.6165 136.098 32.8498 136.098 33.1298C136.098 33.3832 136.035 33.5998 135.908 33.7798C135.781 33.9598 135.611 34.0998 135.398 34.1998C135.685 34.2998 135.911 34.4498 136.078 34.6498C136.251 34.8432 136.338 35.1165 136.338 35.4698C136.338 35.7832 136.275 36.0432 136.148 36.2498C136.028 36.4565 135.858 36.6232 135.638 36.7498C135.425 36.8765 135.171 36.9632 134.878 37.0098C134.585 37.0632 134.271 37.0898 133.938 37.0898Z" fill="#202D41"></path><path d="M139.296 36.3298C139.516 36.3298 139.71 36.3265 139.876 36.3198C140.05 36.3065 140.193 36.2865 140.306 36.2598V34.7098C140.24 34.6765 140.13 34.6498 139.976 34.6298C139.83 34.6032 139.65 34.5898 139.436 34.5898C139.296 34.5898 139.146 34.5998 138.986 34.6198C138.833 34.6398 138.69 34.6832 138.556 34.7498C138.43 34.8098 138.323 34.8965 138.236 35.0098C138.15 35.1165 138.106 35.2598 138.106 35.4398C138.106 35.7732 138.213 36.0065 138.426 36.1398C138.64 36.2665 138.93 36.3298 139.296 36.3298ZM139.216 31.6698C139.59 31.6698 139.903 31.7198 140.156 31.8198C140.416 31.9132 140.623 32.0498 140.776 32.2298C140.936 32.4032 141.05 32.6132 141.116 32.8598C141.183 33.0998 141.216 33.3665 141.216 33.6598V36.9098C141.136 36.9232 141.023 36.9432 140.876 36.9698C140.736 36.9898 140.576 37.0098 140.396 37.0298C140.216 37.0498 140.02 37.0665 139.806 37.0798C139.6 37.0998 139.393 37.1098 139.186 37.1098C138.893 37.1098 138.623 37.0798 138.376 37.0198C138.13 36.9598 137.916 36.8665 137.736 36.7398C137.556 36.6065 137.416 36.4332 137.316 36.2198C137.216 36.0065 137.166 35.7498 137.166 35.4498C137.166 35.1632 137.223 34.9165 137.336 34.7098C137.456 34.5032 137.616 34.3365 137.816 34.2098C138.016 34.0832 138.25 33.9898 138.516 33.9298C138.783 33.8698 139.063 33.8398 139.356 33.8398C139.45 33.8398 139.546 33.8465 139.646 33.8598C139.746 33.8665 139.84 33.8798 139.926 33.8998C140.02 33.9132 140.1 33.9265 140.166 33.9398C140.233 33.9532 140.28 33.9632 140.306 33.9698V33.7098C140.306 33.5565 140.29 33.4065 140.256 33.2598C140.223 33.1065 140.163 32.9732 140.076 32.8598C139.99 32.7398 139.87 32.6465 139.716 32.5798C139.57 32.5065 139.376 32.4698 139.136 32.4698C138.83 32.4698 138.56 32.4932 138.326 32.5398C138.1 32.5798 137.93 32.6232 137.816 32.6698L137.706 31.8998C137.826 31.8465 138.026 31.7965 138.306 31.7498C138.586 31.6965 138.89 31.6698 139.216 31.6698Z" fill="#202D41"></path><path d="M147.131 31.7998V36.9998H146.231V33.0398C146.031 33.2932 145.811 33.5898 145.571 33.9298C145.331 34.2698 145.091 34.6232 144.851 34.9898C144.611 35.3498 144.381 35.7065 144.161 36.0598C143.941 36.4132 143.751 36.7265 143.591 36.9998H142.761V31.7998H143.661V35.5398C143.834 35.2532 144.031 34.9398 144.251 34.5998C144.471 34.2532 144.698 33.9132 144.931 33.5798C145.171 33.2398 145.408 32.9165 145.641 32.6098C145.881 32.2965 146.104 32.0265 146.311 31.7998H147.131ZM144.951 30.9598C144.531 30.9598 144.188 30.8532 143.921 30.6398C143.661 30.4265 143.504 30.1298 143.451 29.7498L144.161 29.5598C144.214 29.7732 144.304 29.9465 144.431 30.0798C144.558 30.2132 144.731 30.2798 144.951 30.2798C145.171 30.2798 145.344 30.2132 145.471 30.0798C145.598 29.9465 145.688 29.7732 145.741 29.5598L146.441 29.7498C146.388 30.1298 146.231 30.4265 145.971 30.6398C145.711 30.8532 145.371 30.9598 144.951 30.9598Z" fill="#202D41"></path><path d="M148.088 36.2398H148.648C148.868 35.9198 149.041 35.5898 149.168 35.2498C149.301 34.9098 149.401 34.5598 149.468 34.1998C149.534 33.8332 149.578 33.4532 149.598 33.0598C149.618 32.6598 149.631 32.2398 149.638 31.7998H153.048V36.2398H153.748V38.4498H152.868V36.9998H148.968V38.4498H148.088V36.2398ZM152.118 36.2398V32.5798H150.488C150.481 32.8932 150.464 33.2098 150.438 33.5298C150.411 33.8432 150.368 34.1565 150.308 34.4698C150.248 34.7765 150.161 35.0798 150.048 35.3798C149.941 35.6732 149.804 35.9598 149.638 36.2398H152.118Z" fill="#202D41"></path><path d="M154.463 34.4098C154.463 33.9498 154.53 33.5498 154.663 33.2098C154.797 32.8632 154.973 32.5765 155.193 32.3498C155.413 32.1232 155.667 31.9532 155.953 31.8398C156.24 31.7265 156.533 31.6698 156.833 31.6698C157.533 31.6698 158.07 31.8898 158.443 32.3298C158.817 32.7632 159.003 33.4265 159.003 34.3198C159.003 34.3598 159.003 34.4132 159.003 34.4798C159.003 34.5398 159 34.5965 158.993 34.6498H155.433C155.473 35.1898 155.63 35.5998 155.903 35.8798C156.177 36.1598 156.603 36.2998 157.183 36.2998C157.51 36.2998 157.783 36.2732 158.003 36.2198C158.23 36.1598 158.4 36.1032 158.513 36.0498L158.643 36.8298C158.53 36.8898 158.33 36.9532 158.043 37.0198C157.763 37.0865 157.443 37.1198 157.083 37.1198C156.63 37.1198 156.237 37.0532 155.903 36.9198C155.577 36.7798 155.307 36.5898 155.093 36.3498C154.88 36.1098 154.72 35.8265 154.613 35.4998C154.513 35.1665 154.463 34.8032 154.463 34.4098ZM158.033 33.8998C158.04 33.4798 157.933 33.1365 157.713 32.8698C157.5 32.5965 157.203 32.4598 156.823 32.4598C156.61 32.4598 156.42 32.5032 156.253 32.5898C156.093 32.6698 155.957 32.7765 155.843 32.9098C155.73 33.0432 155.64 33.1965 155.573 33.3698C155.513 33.5432 155.473 33.7198 155.453 33.8998H158.033Z" fill="#202D41"></path><path d="M163.949 34.4098C163.949 33.8032 163.799 33.3365 163.499 33.0098C163.199 32.6832 162.799 32.5198 162.299 32.5198C162.019 32.5198 161.799 32.5298 161.639 32.5498C161.486 32.5698 161.362 32.5932 161.269 32.6198V35.8998C161.382 35.9932 161.546 36.0832 161.759 36.1698C161.972 36.2565 162.206 36.2998 162.459 36.2998C162.726 36.2998 162.952 36.2532 163.139 36.1598C163.332 36.0598 163.489 35.9265 163.609 35.7598C163.729 35.5865 163.816 35.3865 163.869 35.1598C163.922 34.9265 163.949 34.6765 163.949 34.4098ZM164.919 34.4098C164.919 34.8032 164.866 35.1665 164.759 35.4998C164.659 35.8332 164.509 36.1198 164.309 36.3598C164.109 36.5998 163.862 36.7865 163.569 36.9198C163.282 37.0532 162.952 37.1198 162.579 37.1198C162.279 37.1198 162.012 37.0798 161.779 36.9998C161.552 36.9198 161.382 36.8432 161.269 36.7698V38.8498H160.339V31.9598C160.559 31.9065 160.832 31.8498 161.159 31.7898C161.492 31.7232 161.876 31.6898 162.309 31.6898C162.709 31.6898 163.069 31.7532 163.389 31.8798C163.709 32.0065 163.982 32.1865 164.209 32.4198C164.436 32.6532 164.609 32.9398 164.729 33.2798C164.856 33.6132 164.919 33.9898 164.919 34.4098Z" fill="#202D41"></path></svg> 